M48
; DRILL file {KiCad 5.1.7-a382d34a8~87~ubuntu18.04.1} date Sat Nov 14 17:28:56 2020
; FORMAT={-:-/ absolute / metric / decimal}
; #@! TF.CreationDate,2020-11-14T17:28:56-06:00
; #@! TF.GenerationSoftware,Kicad,Pcbnew,5.1.7-a382d34a8~87~ubuntu18.04.1
FMAT,2
METRIC
T1C0.700
T2C0.800
T3C1.000
%
G90
G05
T1
X135.636Y-90.424
X135.636Y-95.504
X128.524Y-92.964
X133.604Y-92.964
X140.756Y-98.552
X143.256Y-98.552
X148.336Y-87.884
X148.336Y-92.964
T2
X129.112Y-87.884
X134.112Y-87.884
X145.876Y-99.06
X150.876Y-99.06
X128.524Y-95.631
X131.064Y-95.631
X133.604Y-95.631
X138.176Y-87.884
X138.176Y-90.424
X138.176Y-92.964
X138.176Y-95.504
X145.796Y-87.884
X145.796Y-90.424
X145.796Y-92.964
X145.796Y-95.504
T3
X138.176Y-98.044
X138.176Y-100.584
X150.876Y-95.504
X153.416Y-95.504
T0
M30
