%TF.GenerationSoftware,KiCad,Pcbnew,5.1.7-a382d34a8~87~ubuntu18.04.1*%
%TF.CreationDate,2020-11-14T17:29:08-06:00*%
%TF.ProjectId,quick reset,71756963-6b20-4726-9573-65742e6b6963,rev?*%
%TF.SameCoordinates,Original*%
%TF.FileFunction,Copper,L2,Bot*%
%TF.FilePolarity,Positive*%
%FSLAX46Y46*%
G04 Gerber Fmt 4.6, Leading zero omitted, Abs format (unit mm)*
G04 Created by KiCad (PCBNEW 5.1.7-a382d34a8~87~ubuntu18.04.1) date 2020-11-14 17:29:08*
%MOMM*%
%LPD*%
G01*
G04 APERTURE LIST*
%TA.AperFunction,ComponentPad*%
%ADD10R,1.500000X1.500000*%
%TD*%
%TA.AperFunction,ComponentPad*%
%ADD11C,1.500000*%
%TD*%
%TA.AperFunction,ComponentPad*%
%ADD12O,1.700000X1.700000*%
%TD*%
%TA.AperFunction,ComponentPad*%
%ADD13R,1.700000X1.700000*%
%TD*%
%TA.AperFunction,ComponentPad*%
%ADD14C,1.600000*%
%TD*%
%TA.AperFunction,ComponentPad*%
%ADD15C,1.400000*%
%TD*%
%TA.AperFunction,ComponentPad*%
%ADD16O,2.400000X1.600000*%
%TD*%
%TA.AperFunction,ComponentPad*%
%ADD17R,2.400000X1.600000*%
%TD*%
%TA.AperFunction,ComponentPad*%
%ADD18O,1.400000X1.400000*%
%TD*%
%TA.AperFunction,Conductor*%
%ADD19C,1.000000*%
%TD*%
%TA.AperFunction,Conductor*%
%ADD20C,0.254000*%
%TD*%
%TA.AperFunction,Conductor*%
%ADD21C,0.100000*%
%TD*%
G04 APERTURE END LIST*
D10*
%TO.P,Q1,1*%
%TO.N,Net-(J2-Pad1)*%
X128524000Y-95631000D03*
D11*
%TO.P,Q1,3*%
%TO.N,Net-(J2-Pad2)*%
X133604000Y-95631000D03*
%TO.P,Q1,2*%
%TO.N,Net-(Q1-Pad2)*%
X131064000Y-95631000D03*
%TD*%
D12*
%TO.P,J2,2*%
%TO.N,Net-(J2-Pad2)*%
X138176000Y-98044000D03*
D13*
%TO.P,J2,1*%
%TO.N,Net-(J2-Pad1)*%
X138176000Y-100584000D03*
%TD*%
D12*
%TO.P,J1,2*%
%TO.N,Net-(C1-Pad1)*%
X153416000Y-95504000D03*
D13*
%TO.P,J1,1*%
%TO.N,Net-(J1-Pad1)*%
X150876000Y-95504000D03*
%TD*%
D14*
%TO.P,C3,2*%
%TO.N,Net-(C3-Pad2)*%
X129112000Y-87884000D03*
%TO.P,C3,1*%
%TO.N,Net-(C1-Pad1)*%
X134112000Y-87884000D03*
%TD*%
D15*
%TO.P,C2,2*%
%TO.N,Net-(C2-Pad2)*%
X140756000Y-98552000D03*
%TO.P,C2,1*%
%TO.N,Net-(C1-Pad1)*%
X143256000Y-98552000D03*
%TD*%
D14*
%TO.P,C1,2*%
%TO.N,Net-(C1-Pad2)*%
X145876000Y-99060000D03*
%TO.P,C1,1*%
%TO.N,Net-(C1-Pad1)*%
X150876000Y-99060000D03*
%TD*%
D16*
%TO.P,U1,8*%
%TO.N,Net-(J1-Pad1)*%
X145796000Y-87884000D03*
%TO.P,U1,4*%
X138176000Y-95504000D03*
%TO.P,U1,7*%
%TO.N,Net-(C1-Pad2)*%
X145796000Y-90424000D03*
%TO.P,U1,3*%
%TO.N,Net-(R3-Pad2)*%
X138176000Y-92964000D03*
%TO.P,U1,6*%
%TO.N,Net-(C1-Pad2)*%
X145796000Y-92964000D03*
%TO.P,U1,2*%
%TO.N,Net-(C3-Pad2)*%
X138176000Y-90424000D03*
%TO.P,U1,5*%
%TO.N,Net-(C2-Pad2)*%
X145796000Y-95504000D03*
D17*
%TO.P,U1,1*%
%TO.N,Net-(C1-Pad1)*%
X138176000Y-87884000D03*
%TD*%
D18*
%TO.P,R3,2*%
%TO.N,Net-(R3-Pad2)*%
X133604000Y-92964000D03*
D15*
%TO.P,R3,1*%
%TO.N,Net-(Q1-Pad2)*%
X128524000Y-92964000D03*
%TD*%
D18*
%TO.P,R2,2*%
%TO.N,Net-(J1-Pad1)*%
X148336000Y-87884000D03*
D15*
%TO.P,R2,1*%
%TO.N,Net-(C1-Pad2)*%
X148336000Y-92964000D03*
%TD*%
D18*
%TO.P,R1,2*%
%TO.N,Net-(J1-Pad1)*%
X135636000Y-95504000D03*
D15*
%TO.P,R1,1*%
%TO.N,Net-(C3-Pad2)*%
X135636000Y-90424000D03*
%TD*%
D19*
%TO.N,Net-(C1-Pad2)*%
X145796000Y-90424000D02*
X145796000Y-92964000D01*
X145796000Y-92964000D02*
X148336000Y-92964000D01*
X145876000Y-99060000D02*
X146130000Y-99060000D01*
X148336000Y-92964000D02*
X148336000Y-96600000D01*
X148336000Y-96600000D02*
X145876000Y-99060000D01*
%TO.N,Net-(C2-Pad2)*%
X140756000Y-98552000D02*
X143804000Y-95504000D01*
X143804000Y-95504000D02*
X145796000Y-95504000D01*
%TO.N,Net-(C3-Pad2)*%
X138176000Y-90424000D02*
X135636000Y-90424000D01*
X131652000Y-90424000D02*
X129112000Y-87884000D01*
X135636000Y-90424000D02*
X131652000Y-90424000D01*
%TO.N,Net-(Q1-Pad2)*%
X131064000Y-95504000D02*
X128524000Y-92964000D01*
X131064000Y-95631000D02*
X131064000Y-95504000D01*
%TO.N,Net-(R3-Pad2)*%
X134112000Y-92964000D02*
X138176000Y-92964000D01*
%TO.N,Net-(J1-Pad1)*%
X135636000Y-95504000D02*
X138176000Y-95504000D01*
X138176000Y-95504000D02*
X145796000Y-87884000D01*
X145796000Y-87884000D02*
X148336000Y-87884000D01*
X150876000Y-90424000D02*
X148336000Y-87884000D01*
X150876000Y-95504000D02*
X150876000Y-90424000D01*
%TO.N,Net-(C1-Pad1)*%
X143256000Y-98660002D02*
X143256000Y-98552000D01*
X145155999Y-100560001D02*
X143256000Y-98660002D01*
X149629999Y-100560001D02*
X145155999Y-100560001D01*
X153416000Y-95504000D02*
X153416000Y-96774000D01*
X153416000Y-96774000D02*
X149629999Y-100560001D01*
X134112000Y-87884000D02*
X138176000Y-87884000D01*
%TO.N,Net-(J2-Pad2)*%
X136017000Y-98044000D02*
X138176000Y-98044000D01*
X133604000Y-95631000D02*
X136017000Y-98044000D01*
%TO.N,Net-(J2-Pad1)*%
X133477000Y-100584000D02*
X128524000Y-95631000D01*
X138176000Y-100584000D02*
X133477000Y-100584000D01*
%TD*%
D20*
%TO.N,Net-(C1-Pad1)*%
X151319610Y-85870802D02*
X151695549Y-85926568D01*
X152064231Y-86018918D01*
X152422069Y-86146954D01*
X152765657Y-86309459D01*
X153091636Y-86504844D01*
X153396905Y-86731247D01*
X153678516Y-86986484D01*
X153933753Y-87268095D01*
X154160156Y-87573364D01*
X154355541Y-87899343D01*
X154518046Y-88242931D01*
X154646082Y-88600769D01*
X154738432Y-88969451D01*
X154794198Y-89345390D01*
X154813000Y-89728118D01*
X154813000Y-97596882D01*
X154794198Y-97979610D01*
X154738432Y-98355549D01*
X154646082Y-98724231D01*
X154518046Y-99082069D01*
X154355541Y-99425657D01*
X154160156Y-99751636D01*
X153933753Y-100056905D01*
X153678516Y-100338516D01*
X153396905Y-100593753D01*
X153091636Y-100820156D01*
X152765657Y-101015541D01*
X152422069Y-101178046D01*
X152064231Y-101306082D01*
X151695549Y-101398432D01*
X151361393Y-101448000D01*
X139662693Y-101448000D01*
X139664072Y-101434000D01*
X139664072Y-99734000D01*
X139651812Y-99609518D01*
X139615502Y-99489820D01*
X139556537Y-99379506D01*
X139477185Y-99282815D01*
X139380494Y-99203463D01*
X139270180Y-99144498D01*
X139197620Y-99122487D01*
X139329475Y-98990632D01*
X139447084Y-98814618D01*
X139472304Y-98941405D01*
X139572939Y-99184359D01*
X139719038Y-99403013D01*
X139904987Y-99588962D01*
X140123641Y-99735061D01*
X140366595Y-99835696D01*
X140624514Y-99887000D01*
X140887486Y-99887000D01*
X141145405Y-99835696D01*
X141388359Y-99735061D01*
X141607013Y-99588962D01*
X141792962Y-99403013D01*
X141939061Y-99184359D01*
X142039696Y-98941405D01*
X142056573Y-98856558D01*
X144274132Y-96639000D01*
X144516998Y-96639000D01*
X144594899Y-96702932D01*
X144844192Y-96836182D01*
X145114691Y-96918236D01*
X145325508Y-96939000D01*
X146266492Y-96939000D01*
X146405566Y-96925302D01*
X145698718Y-97632150D01*
X145457426Y-97680147D01*
X145196273Y-97788320D01*
X144961241Y-97945363D01*
X144761363Y-98145241D01*
X144604320Y-98380273D01*
X144496147Y-98641426D01*
X144441000Y-98918665D01*
X144441000Y-99201335D01*
X144496147Y-99478574D01*
X144604320Y-99739727D01*
X144761363Y-99974759D01*
X144961241Y-100174637D01*
X145196273Y-100331680D01*
X145457426Y-100439853D01*
X145734665Y-100495000D01*
X146017335Y-100495000D01*
X146294574Y-100439853D01*
X146555727Y-100331680D01*
X146790759Y-100174637D01*
X146990637Y-99974759D01*
X147147680Y-99739727D01*
X147255853Y-99478574D01*
X147303850Y-99237282D01*
X149099141Y-97441991D01*
X149142449Y-97406449D01*
X149284284Y-97233623D01*
X149389676Y-97036447D01*
X149454577Y-96822499D01*
X149470420Y-96661642D01*
X149495463Y-96708494D01*
X149574815Y-96805185D01*
X149671506Y-96884537D01*
X149781820Y-96943502D01*
X149901518Y-96979812D01*
X150026000Y-96992072D01*
X151726000Y-96992072D01*
X151850482Y-96979812D01*
X151970180Y-96943502D01*
X152080494Y-96884537D01*
X152177185Y-96805185D01*
X152256537Y-96708494D01*
X152315502Y-96598180D01*
X152351812Y-96478482D01*
X152364072Y-96354000D01*
X152364072Y-94654000D01*
X152351812Y-94529518D01*
X152315502Y-94409820D01*
X152256537Y-94299506D01*
X152177185Y-94202815D01*
X152080494Y-94123463D01*
X152011000Y-94086317D01*
X152011000Y-90479741D01*
X152016490Y-90423999D01*
X152011000Y-90368257D01*
X152011000Y-90368248D01*
X151994577Y-90201501D01*
X151929676Y-89987553D01*
X151824284Y-89790377D01*
X151682449Y-89617551D01*
X151639141Y-89582009D01*
X149636573Y-87579442D01*
X149619696Y-87494595D01*
X149519061Y-87251641D01*
X149372962Y-87032987D01*
X149187013Y-86847038D01*
X148968359Y-86700939D01*
X148725405Y-86600304D01*
X148467486Y-86549000D01*
X148204514Y-86549000D01*
X147946595Y-86600304D01*
X147703641Y-86700939D01*
X147631712Y-86749000D01*
X147075002Y-86749000D01*
X146997101Y-86685068D01*
X146747808Y-86551818D01*
X146477309Y-86469764D01*
X146266492Y-86449000D01*
X145325508Y-86449000D01*
X145114691Y-86469764D01*
X144844192Y-86551818D01*
X144594899Y-86685068D01*
X144376392Y-86864392D01*
X144197068Y-87082899D01*
X144063818Y-87332192D01*
X143981764Y-87602691D01*
X143954057Y-87884000D01*
X143975290Y-88099578D01*
X139822666Y-92252203D01*
X139774932Y-92162899D01*
X139595608Y-91944392D01*
X139377101Y-91765068D01*
X139244142Y-91694000D01*
X139377101Y-91622932D01*
X139595608Y-91443608D01*
X139774932Y-91225101D01*
X139908182Y-90975808D01*
X139990236Y-90705309D01*
X140017943Y-90424000D01*
X139990236Y-90142691D01*
X139908182Y-89872192D01*
X139774932Y-89622899D01*
X139595608Y-89404392D01*
X139377101Y-89225068D01*
X139127808Y-89091818D01*
X138857309Y-89009764D01*
X138646492Y-88989000D01*
X137705508Y-88989000D01*
X137494691Y-89009764D01*
X137224192Y-89091818D01*
X136974899Y-89225068D01*
X136896998Y-89289000D01*
X136340288Y-89289000D01*
X136268359Y-89240939D01*
X136025405Y-89140304D01*
X135767486Y-89089000D01*
X135504514Y-89089000D01*
X135246595Y-89140304D01*
X135003641Y-89240939D01*
X134931712Y-89289000D01*
X132122132Y-89289000D01*
X130539850Y-87706718D01*
X130491853Y-87465426D01*
X130383680Y-87204273D01*
X130226637Y-86969241D01*
X130026759Y-86769363D01*
X129791727Y-86612320D01*
X129530574Y-86504147D01*
X129496001Y-86497270D01*
X129809343Y-86309459D01*
X130152931Y-86146954D01*
X130510769Y-86018918D01*
X130879451Y-85926568D01*
X131255390Y-85870802D01*
X131638118Y-85852000D01*
X150936882Y-85852000D01*
X151319610Y-85870802D01*
%TA.AperFunction,Conductor*%
D21*
G36*
X151319610Y-85870802D02*
G01*
X151695549Y-85926568D01*
X152064231Y-86018918D01*
X152422069Y-86146954D01*
X152765657Y-86309459D01*
X153091636Y-86504844D01*
X153396905Y-86731247D01*
X153678516Y-86986484D01*
X153933753Y-87268095D01*
X154160156Y-87573364D01*
X154355541Y-87899343D01*
X154518046Y-88242931D01*
X154646082Y-88600769D01*
X154738432Y-88969451D01*
X154794198Y-89345390D01*
X154813000Y-89728118D01*
X154813000Y-97596882D01*
X154794198Y-97979610D01*
X154738432Y-98355549D01*
X154646082Y-98724231D01*
X154518046Y-99082069D01*
X154355541Y-99425657D01*
X154160156Y-99751636D01*
X153933753Y-100056905D01*
X153678516Y-100338516D01*
X153396905Y-100593753D01*
X153091636Y-100820156D01*
X152765657Y-101015541D01*
X152422069Y-101178046D01*
X152064231Y-101306082D01*
X151695549Y-101398432D01*
X151361393Y-101448000D01*
X139662693Y-101448000D01*
X139664072Y-101434000D01*
X139664072Y-99734000D01*
X139651812Y-99609518D01*
X139615502Y-99489820D01*
X139556537Y-99379506D01*
X139477185Y-99282815D01*
X139380494Y-99203463D01*
X139270180Y-99144498D01*
X139197620Y-99122487D01*
X139329475Y-98990632D01*
X139447084Y-98814618D01*
X139472304Y-98941405D01*
X139572939Y-99184359D01*
X139719038Y-99403013D01*
X139904987Y-99588962D01*
X140123641Y-99735061D01*
X140366595Y-99835696D01*
X140624514Y-99887000D01*
X140887486Y-99887000D01*
X141145405Y-99835696D01*
X141388359Y-99735061D01*
X141607013Y-99588962D01*
X141792962Y-99403013D01*
X141939061Y-99184359D01*
X142039696Y-98941405D01*
X142056573Y-98856558D01*
X144274132Y-96639000D01*
X144516998Y-96639000D01*
X144594899Y-96702932D01*
X144844192Y-96836182D01*
X145114691Y-96918236D01*
X145325508Y-96939000D01*
X146266492Y-96939000D01*
X146405566Y-96925302D01*
X145698718Y-97632150D01*
X145457426Y-97680147D01*
X145196273Y-97788320D01*
X144961241Y-97945363D01*
X144761363Y-98145241D01*
X144604320Y-98380273D01*
X144496147Y-98641426D01*
X144441000Y-98918665D01*
X144441000Y-99201335D01*
X144496147Y-99478574D01*
X144604320Y-99739727D01*
X144761363Y-99974759D01*
X144961241Y-100174637D01*
X145196273Y-100331680D01*
X145457426Y-100439853D01*
X145734665Y-100495000D01*
X146017335Y-100495000D01*
X146294574Y-100439853D01*
X146555727Y-100331680D01*
X146790759Y-100174637D01*
X146990637Y-99974759D01*
X147147680Y-99739727D01*
X147255853Y-99478574D01*
X147303850Y-99237282D01*
X149099141Y-97441991D01*
X149142449Y-97406449D01*
X149284284Y-97233623D01*
X149389676Y-97036447D01*
X149454577Y-96822499D01*
X149470420Y-96661642D01*
X149495463Y-96708494D01*
X149574815Y-96805185D01*
X149671506Y-96884537D01*
X149781820Y-96943502D01*
X149901518Y-96979812D01*
X150026000Y-96992072D01*
X151726000Y-96992072D01*
X151850482Y-96979812D01*
X151970180Y-96943502D01*
X152080494Y-96884537D01*
X152177185Y-96805185D01*
X152256537Y-96708494D01*
X152315502Y-96598180D01*
X152351812Y-96478482D01*
X152364072Y-96354000D01*
X152364072Y-94654000D01*
X152351812Y-94529518D01*
X152315502Y-94409820D01*
X152256537Y-94299506D01*
X152177185Y-94202815D01*
X152080494Y-94123463D01*
X152011000Y-94086317D01*
X152011000Y-90479741D01*
X152016490Y-90423999D01*
X152011000Y-90368257D01*
X152011000Y-90368248D01*
X151994577Y-90201501D01*
X151929676Y-89987553D01*
X151824284Y-89790377D01*
X151682449Y-89617551D01*
X151639141Y-89582009D01*
X149636573Y-87579442D01*
X149619696Y-87494595D01*
X149519061Y-87251641D01*
X149372962Y-87032987D01*
X149187013Y-86847038D01*
X148968359Y-86700939D01*
X148725405Y-86600304D01*
X148467486Y-86549000D01*
X148204514Y-86549000D01*
X147946595Y-86600304D01*
X147703641Y-86700939D01*
X147631712Y-86749000D01*
X147075002Y-86749000D01*
X146997101Y-86685068D01*
X146747808Y-86551818D01*
X146477309Y-86469764D01*
X146266492Y-86449000D01*
X145325508Y-86449000D01*
X145114691Y-86469764D01*
X144844192Y-86551818D01*
X144594899Y-86685068D01*
X144376392Y-86864392D01*
X144197068Y-87082899D01*
X144063818Y-87332192D01*
X143981764Y-87602691D01*
X143954057Y-87884000D01*
X143975290Y-88099578D01*
X139822666Y-92252203D01*
X139774932Y-92162899D01*
X139595608Y-91944392D01*
X139377101Y-91765068D01*
X139244142Y-91694000D01*
X139377101Y-91622932D01*
X139595608Y-91443608D01*
X139774932Y-91225101D01*
X139908182Y-90975808D01*
X139990236Y-90705309D01*
X140017943Y-90424000D01*
X139990236Y-90142691D01*
X139908182Y-89872192D01*
X139774932Y-89622899D01*
X139595608Y-89404392D01*
X139377101Y-89225068D01*
X139127808Y-89091818D01*
X138857309Y-89009764D01*
X138646492Y-88989000D01*
X137705508Y-88989000D01*
X137494691Y-89009764D01*
X137224192Y-89091818D01*
X136974899Y-89225068D01*
X136896998Y-89289000D01*
X136340288Y-89289000D01*
X136268359Y-89240939D01*
X136025405Y-89140304D01*
X135767486Y-89089000D01*
X135504514Y-89089000D01*
X135246595Y-89140304D01*
X135003641Y-89240939D01*
X134931712Y-89289000D01*
X132122132Y-89289000D01*
X130539850Y-87706718D01*
X130491853Y-87465426D01*
X130383680Y-87204273D01*
X130226637Y-86969241D01*
X130026759Y-86769363D01*
X129791727Y-86612320D01*
X129530574Y-86504147D01*
X129496001Y-86497270D01*
X129809343Y-86309459D01*
X130152931Y-86146954D01*
X130510769Y-86018918D01*
X130879451Y-85926568D01*
X131255390Y-85870802D01*
X131638118Y-85852000D01*
X150936882Y-85852000D01*
X151319610Y-85870802D01*
G37*
%TD.AperFunction*%
%TD*%
M02*
